<?xml version="1.0" encoding="utf-8" standalone="no"?>
<!DOCTYPE svg PUBLIC "-//W3C//DTD SVG 1.1//EN"
  "http://www.w3.org/Graphics/SVG/1.1/DTD/svg11.dtd">
<svg xmlns:xlink="http://www.w3.org/1999/xlink" width="334.627187pt" height="344.400938pt" viewBox="0 0 334.627187 344.400938" xmlns="http://www.w3.org/2000/svg" version="1.1">
 <metadata>
  <rdf:RDF xmlns:dc="http://purl.org/dc/elements/1.1/" xmlns:cc="http://creativecommons.org/ns#" xmlns:rdf="http://www.w3.org/1999/02/22-rdf-syntax-ns#">
   <cc:Work>
    <dc:type rdf:resource="http://purl.org/dc/dcmitype/StillImage"/>
    <dc:date>2023-11-03T10:15:27.862620</dc:date>
    <dc:format>image/svg+xml</dc:format>
    <dc:creator>
     <cc:Agent>
      <dc:title>Matplotlib v3.8.1, https://matplotlib.org/</dc:title>
     </cc:Agent>
    </dc:creator>
   </cc:Work>
  </rdf:RDF>
 </metadata>
 <defs>
  <style type="text/css">*{stroke-linejoin: round; stroke-linecap: butt}</style>
 </defs>
 <g id="figure_1">
  <g id="patch_1">
   <path d="M 0 344.400938 
L 334.627187 344.400938 
L 334.627187 0 
L 0 0 
z
" style="fill: #ffffff"/>
  </g>
  <g id="axes_1">
   <g id="patch_2">
    <path d="M 48.427188 301.037813 
L 327.427188 301.037813 
L 327.427188 23.837813 
L 48.427188 23.837813 
z
" style="fill: #ffffff"/>
   </g>
   <g id="PathCollection_1">
    <defs>
     <path id="C0_0_5ea28d03dc" d="M 0 2.738613 
C 0.726289 2.738613 1.422928 2.450055 1.936492 1.936492 
C 2.450055 1.422928 2.738613 0.726289 2.738613 -0 
C 2.738613 -0.726289 2.450055 -1.422928 1.936492 -1.936492 
C 1.422928 -2.450055 0.726289 -2.738613 0 -2.738613 
C -0.726289 -2.738613 -1.422928 -2.450055 -1.936492 -1.936492 
C -2.450055 -1.422928 -2.738613 -0.726289 -2.738613 0 
C -2.738613 0.726289 -2.450055 1.422928 -1.936492 1.936492 
C -1.422928 2.450055 -0.726289 2.738613 0 2.738613 
z
"/>
    </defs>
    <g clip-path="url(#p24da66156d)">
     <use xlink:href="#C0_0_5ea28d03dc" x="192.689982" y="203.867962" style="fill: #0000ff; stroke: #0000ff"/>
    </g>
    <g clip-path="url(#p24da66156d)">
     <use xlink:href="#C0_0_5ea28d03dc" x="212.156689" y="200.197529" style="fill: #0000ff; stroke: #0000ff"/>
    </g>
    <g clip-path="url(#p24da66156d)">
     <use xlink:href="#C0_0_5ea28d03dc" x="193.665723" y="100.215715" style="fill: #ff0000; stroke: #ff0000"/>
    </g>
    <g clip-path="url(#p24da66156d)">
     <use xlink:href="#C0_0_5ea28d03dc" x="215.041428" y="107.356592" style="fill: #ff0000; stroke: #ff0000"/>
    </g>
    <g clip-path="url(#p24da66156d)">
     <use xlink:href="#C0_0_5ea28d03dc" x="225.853112" y="220.29773" style="fill: #0000ff; stroke: #0000ff"/>
    </g>
    <g clip-path="url(#p24da66156d)">
     <use xlink:href="#C0_0_5ea28d03dc" x="257.138715" y="253.885659" style="fill: #0000ff; stroke: #0000ff"/>
    </g>
    <g clip-path="url(#p24da66156d)">
     <use xlink:href="#C0_0_5ea28d03dc" x="278.826688" y="256.353102" style="fill: #0000ff; stroke: #0000ff"/>
    </g>
    <g clip-path="url(#p24da66156d)">
     <use xlink:href="#C0_0_5ea28d03dc" x="224.219633" y="187.887426" style="fill: #0000ff; stroke: #0000ff"/>
    </g>
    <g clip-path="url(#p24da66156d)">
     <use xlink:href="#C0_0_5ea28d03dc" x="223.091647" y="217.547856" style="fill: #0000ff; stroke: #0000ff"/>
    </g>
    <g clip-path="url(#p24da66156d)">
     <use xlink:href="#C0_0_5ea28d03dc" x="121.718285" y="60.252283" style="fill: #ff0000; stroke: #ff0000"/>
    </g>
    <g clip-path="url(#p24da66156d)">
     <use xlink:href="#C0_0_5ea28d03dc" x="207.34928" y="76.603739" style="fill: #ff0000; stroke: #ff0000"/>
    </g>
    <g clip-path="url(#p24da66156d)">
     <use xlink:href="#C0_0_5ea28d03dc" x="134.941747" y="85.887014" style="fill: #ff0000; stroke: #ff0000"/>
    </g>
    <g clip-path="url(#p24da66156d)">
     <use xlink:href="#C0_0_5ea28d03dc" x="175.991948" y="94.611801" style="fill: #ff0000; stroke: #ff0000"/>
    </g>
    <g clip-path="url(#p24da66156d)">
     <use xlink:href="#C0_0_5ea28d03dc" x="198.520744" y="239.553445" style="fill: #0000ff; stroke: #0000ff"/>
    </g>
    <g clip-path="url(#p24da66156d)">
     <use xlink:href="#C0_0_5ea28d03dc" x="196.680853" y="119.089482" style="fill: #ff0000; stroke: #ff0000"/>
    </g>
    <g clip-path="url(#p24da66156d)">
     <use xlink:href="#C0_0_5ea28d03dc" x="180.602783" y="121.53502" style="fill: #ff0000; stroke: #ff0000"/>
    </g>
    <g clip-path="url(#p24da66156d)">
     <use xlink:href="#C0_0_5ea28d03dc" x="160.179069" y="109.479071" style="fill: #ff0000; stroke: #ff0000"/>
    </g>
    <g clip-path="url(#p24da66156d)">
     <use xlink:href="#C0_0_5ea28d03dc" x="235.645852" y="241.868541" style="fill: #0000ff; stroke: #0000ff"/>
    </g>
    <g clip-path="url(#p24da66156d)">
     <use xlink:href="#C0_0_5ea28d03dc" x="145.585536" y="146.151946" style="fill: #ff0000; stroke: #ff0000"/>
    </g>
    <g clip-path="url(#p24da66156d)">
     <use xlink:href="#C0_0_5ea28d03dc" x="168.463742" y="93.903118" style="fill: #ff0000; stroke: #ff0000"/>
    </g>
    <g clip-path="url(#p24da66156d)">
     <use xlink:href="#C0_0_5ea28d03dc" x="205.416427" y="234.831759" style="fill: #0000ff; stroke: #0000ff"/>
    </g>
    <g clip-path="url(#p24da66156d)">
     <use xlink:href="#C0_0_5ea28d03dc" x="234.3052" y="211.46865" style="fill: #0000ff; stroke: #0000ff"/>
    </g>
    <g clip-path="url(#p24da66156d)">
     <use xlink:href="#C0_0_5ea28d03dc" x="197.456357" y="225.771404" style="fill: #0000ff; stroke: #0000ff"/>
    </g>
    <g clip-path="url(#p24da66156d)">
     <use xlink:href="#C0_0_5ea28d03dc" x="204.304301" y="234.762105" style="fill: #0000ff; stroke: #0000ff"/>
    </g>
    <g clip-path="url(#p24da66156d)">
     <use xlink:href="#C0_0_5ea28d03dc" x="245.173949" y="224.088236" style="fill: #0000ff; stroke: #0000ff"/>
    </g>
    <g clip-path="url(#p24da66156d)">
     <use xlink:href="#C0_0_5ea28d03dc" x="237.66036" y="134.650127" style="fill: #ff0000; stroke: #ff0000"/>
    </g>
    <g clip-path="url(#p24da66156d)">
     <use xlink:href="#C0_0_5ea28d03dc" x="156.612025" y="112.4455" style="fill: #ff0000; stroke: #ff0000"/>
    </g>
    <g clip-path="url(#p24da66156d)">
     <use xlink:href="#C0_0_5ea28d03dc" x="97.027687" y="88.593449" style="fill: #ff0000; stroke: #ff0000"/>
    </g>
    <g clip-path="url(#p24da66156d)">
     <use xlink:href="#C0_0_5ea28d03dc" x="229.087249" y="235.684727" style="fill: #0000ff; stroke: #0000ff"/>
    </g>
    <g clip-path="url(#p24da66156d)">
     <use xlink:href="#C0_0_5ea28d03dc" x="225.932186" y="124.226388" style="fill: #ff0000; stroke: #ff0000"/>
    </g>
    <g clip-path="url(#p24da66156d)">
     <use xlink:href="#C0_0_5ea28d03dc" x="229.98681" y="205.568067" style="fill: #0000ff; stroke: #0000ff"/>
    </g>
    <g clip-path="url(#p24da66156d)">
     <use xlink:href="#C0_0_5ea28d03dc" x="145.361562" y="94.420844" style="fill: #ff0000; stroke: #ff0000"/>
    </g>
    <g clip-path="url(#p24da66156d)">
     <use xlink:href="#C0_0_5ea28d03dc" x="184.41682" y="95.58381" style="fill: #ff0000; stroke: #ff0000"/>
    </g>
    <g clip-path="url(#p24da66156d)">
     <use xlink:href="#C0_0_5ea28d03dc" x="124.41189" y="107.522249" style="fill: #ff0000; stroke: #ff0000"/>
    </g>
    <g clip-path="url(#p24da66156d)">
     <use xlink:href="#C0_0_5ea28d03dc" x="216.169936" y="70.770601" style="fill: #ff0000; stroke: #ff0000"/>
    </g>
    <g clip-path="url(#p24da66156d)">
     <use xlink:href="#C0_0_5ea28d03dc" x="214.828484" y="225.679204" style="fill: #0000ff; stroke: #0000ff"/>
    </g>
    <g clip-path="url(#p24da66156d)">
     <use xlink:href="#C0_0_5ea28d03dc" x="227.614244" y="218.123405" style="fill: #0000ff; stroke: #0000ff"/>
    </g>
    <g clip-path="url(#p24da66156d)">
     <use xlink:href="#C0_0_5ea28d03dc" x="175.673989" y="71.100195" style="fill: #ff0000; stroke: #ff0000"/>
    </g>
    <g clip-path="url(#p24da66156d)">
     <use xlink:href="#C0_0_5ea28d03dc" x="237.492306" y="260.471243" style="fill: #0000ff; stroke: #0000ff"/>
    </g>
    <g clip-path="url(#p24da66156d)">
     <use xlink:href="#C0_0_5ea28d03dc" x="156.578404" y="128.669411" style="fill: #ff0000; stroke: #ff0000"/>
    </g>
    <g clip-path="url(#p24da66156d)">
     <use xlink:href="#C0_0_5ea28d03dc" x="176.376377" y="216.79516" style="fill: #0000ff; stroke: #0000ff"/>
    </g>
    <g clip-path="url(#p24da66156d)">
     <use xlink:href="#C0_0_5ea28d03dc" x="199.178498" y="106.18111" style="fill: #ff0000; stroke: #ff0000"/>
    </g>
    <g clip-path="url(#p24da66156d)">
     <use xlink:href="#C0_0_5ea28d03dc" x="200.20186" y="264.623342" style="fill: #0000ff; stroke: #0000ff"/>
    </g>
    <g clip-path="url(#p24da66156d)">
     <use xlink:href="#C0_0_5ea28d03dc" x="189.937331" y="207.224471" style="fill: #0000ff; stroke: #0000ff"/>
    </g>
    <g clip-path="url(#p24da66156d)">
     <use xlink:href="#C0_0_5ea28d03dc" x="172.807967" y="106.963874" style="fill: #ff0000; stroke: #ff0000"/>
    </g>
    <g clip-path="url(#p24da66156d)">
     <use xlink:href="#C0_0_5ea28d03dc" x="186.865726" y="205.726302" style="fill: #0000ff; stroke: #0000ff"/>
    </g>
    <g clip-path="url(#p24da66156d)">
     <use xlink:href="#C0_0_5ea28d03dc" x="267.311329" y="185.483663" style="fill: #0000ff; stroke: #0000ff"/>
    </g>
    <g clip-path="url(#p24da66156d)">
     <use xlink:href="#C0_0_5ea28d03dc" x="140.897516" y="133.899675" style="fill: #ff0000; stroke: #ff0000"/>
    </g>
    <g clip-path="url(#p24da66156d)">
     <use xlink:href="#C0_0_5ea28d03dc" x="258.287015" y="230.837463" style="fill: #0000ff; stroke: #0000ff"/>
    </g>
    <g clip-path="url(#p24da66156d)">
     <use xlink:href="#C0_0_5ea28d03dc" x="161.328412" y="99.458135" style="fill: #ff0000; stroke: #ff0000"/>
    </g>
    <g clip-path="url(#p24da66156d)">
     <use xlink:href="#C0_0_5ea28d03dc" x="172.626921" y="204.972584" style="fill: #ff0000; stroke: #ff0000"/>
    </g>
   </g>
   <g id="PathCollection_2">
    <defs>
     <path id="C1_0_d22f016634" d="M 0 5 
C 1.326016 5 2.597899 4.473168 3.535534 3.535534 
C 4.473168 2.597899 5 1.326016 5 -0 
C 5 -1.326016 4.473168 -2.597899 3.535534 -3.535534 
C 2.597899 -4.473168 1.326016 -5 0 -5 
C -1.326016 -5 -2.597899 -4.473168 -3.535534 -3.535534 
C -4.473168 -2.597899 -5 -1.326016 -5 0 
C -5 1.326016 -4.473168 2.597899 -3.535534 3.535534 
C -2.597899 4.473168 -1.326016 5 0 5 
z
"/>
    </defs>
    <g clip-path="url(#p24da66156d)">
     <use xlink:href="#C1_0_d22f016634" x="237.66036" y="134.650127" style="fill: none; stroke: #000000"/>
    </g>
    <g clip-path="url(#p24da66156d)">
     <use xlink:href="#C1_0_d22f016634" x="172.626921" y="204.972584" style="fill: none; stroke: #000000"/>
    </g>
    <g clip-path="url(#p24da66156d)">
     <use xlink:href="#C1_0_d22f016634" x="192.689982" y="203.867962" style="fill: none; stroke: #000000"/>
    </g>
    <g clip-path="url(#p24da66156d)">
     <use xlink:href="#C1_0_d22f016634" x="224.219633" y="187.887426" style="fill: none; stroke: #000000"/>
    </g>
    <g clip-path="url(#p24da66156d)">
     <use xlink:href="#C1_0_d22f016634" x="267.311329" y="185.483663" style="fill: none; stroke: #000000"/>
    </g>
   </g>
   <g id="matplotlib.axis_1">
    <g id="xtick_1">
     <g id="line2d_1">
      <defs>
       <path id="mbfd40893a1" d="M 0 0 
L 0 3.5 
" style="stroke: #000000; stroke-width: 0.8"/>
      </defs>
      <g>
       <use xlink:href="#mbfd40893a1" x="75.425922" y="301.037813" style="stroke: #000000; stroke-width: 0.8"/>
      </g>
     </g>
     <g id="text_1">
      <!-- −1 -->
      <g transform="translate(68.054828 315.63625) scale(0.1 -0.1)">
       <defs>
        <path id="DejaVuSans-2212" d="M 678 2272 
L 4684 2272 
L 4684 1741 
L 678 1741 
L 678 2272 
z
" transform="scale(0.015625)"/>
        <path id="DejaVuSans-31" d="M 794 531 
L 1825 531 
L 1825 4091 
L 703 3866 
L 703 4441 
L 1819 4666 
L 2450 4666 
L 2450 531 
L 3481 531 
L 3481 0 
L 794 0 
L 794 531 
z
" transform="scale(0.015625)"/>
       </defs>
       <use xlink:href="#DejaVuSans-2212"/>
       <use xlink:href="#DejaVuSans-31" x="83.789062"/>
      </g>
     </g>
    </g>
    <g id="xtick_2">
     <g id="line2d_2">
      <g>
       <use xlink:href="#mbfd40893a1" x="124.026422" y="301.037813" style="stroke: #000000; stroke-width: 0.8"/>
      </g>
     </g>
     <g id="text_2">
      <!-- 0 -->
      <g transform="translate(120.845172 315.63625) scale(0.1 -0.1)">
       <defs>
        <path id="DejaVuSans-30" d="M 2034 4250 
Q 1547 4250 1301 3770 
Q 1056 3291 1056 2328 
Q 1056 1369 1301 889 
Q 1547 409 2034 409 
Q 2525 409 2770 889 
Q 3016 1369 3016 2328 
Q 3016 3291 2770 3770 
Q 2525 4250 2034 4250 
z
M 2034 4750 
Q 2819 4750 3233 4129 
Q 3647 3509 3647 2328 
Q 3647 1150 3233 529 
Q 2819 -91 2034 -91 
Q 1250 -91 836 529 
Q 422 1150 422 2328 
Q 422 3509 836 4129 
Q 1250 4750 2034 4750 
z
" transform="scale(0.015625)"/>
       </defs>
       <use xlink:href="#DejaVuSans-30"/>
      </g>
     </g>
    </g>
    <g id="xtick_3">
     <g id="line2d_3">
      <g>
       <use xlink:href="#mbfd40893a1" x="172.626921" y="301.037813" style="stroke: #000000; stroke-width: 0.8"/>
      </g>
     </g>
     <g id="text_3">
      <!-- 1 -->
      <g transform="translate(169.445671 315.63625) scale(0.1 -0.1)">
       <use xlink:href="#DejaVuSans-31"/>
      </g>
     </g>
    </g>
    <g id="xtick_4">
     <g id="line2d_4">
      <g>
       <use xlink:href="#mbfd40893a1" x="221.22742" y="301.037813" style="stroke: #000000; stroke-width: 0.8"/>
      </g>
     </g>
     <g id="text_4">
      <!-- 2 -->
      <g transform="translate(218.04617 315.63625) scale(0.1 -0.1)">
       <defs>
        <path id="DejaVuSans-32" d="M 1228 531 
L 3431 531 
L 3431 0 
L 469 0 
L 469 531 
Q 828 903 1448 1529 
Q 2069 2156 2228 2338 
Q 2531 2678 2651 2914 
Q 2772 3150 2772 3378 
Q 2772 3750 2511 3984 
Q 2250 4219 1831 4219 
Q 1534 4219 1204 4116 
Q 875 4013 500 3803 
L 500 4441 
Q 881 4594 1212 4672 
Q 1544 4750 1819 4750 
Q 2544 4750 2975 4387 
Q 3406 4025 3406 3419 
Q 3406 3131 3298 2873 
Q 3191 2616 2906 2266 
Q 2828 2175 2409 1742 
Q 1991 1309 1228 531 
z
" transform="scale(0.015625)"/>
       </defs>
       <use xlink:href="#DejaVuSans-32"/>
      </g>
     </g>
    </g>
    <g id="xtick_5">
     <g id="line2d_5">
      <g>
       <use xlink:href="#mbfd40893a1" x="269.82792" y="301.037813" style="stroke: #000000; stroke-width: 0.8"/>
      </g>
     </g>
     <g id="text_5">
      <!-- 3 -->
      <g transform="translate(266.64667 315.63625) scale(0.1 -0.1)">
       <defs>
        <path id="DejaVuSans-33" d="M 2597 2516 
Q 3050 2419 3304 2112 
Q 3559 1806 3559 1356 
Q 3559 666 3084 287 
Q 2609 -91 1734 -91 
Q 1441 -91 1130 -33 
Q 819 25 488 141 
L 488 750 
Q 750 597 1062 519 
Q 1375 441 1716 441 
Q 2309 441 2620 675 
Q 2931 909 2931 1356 
Q 2931 1769 2642 2001 
Q 2353 2234 1838 2234 
L 1294 2234 
L 1294 2753 
L 1863 2753 
Q 2328 2753 2575 2939 
Q 2822 3125 2822 3475 
Q 2822 3834 2567 4026 
Q 2313 4219 1838 4219 
Q 1578 4219 1281 4162 
Q 984 4106 628 3988 
L 628 4550 
Q 988 4650 1302 4700 
Q 1616 4750 1894 4750 
Q 2613 4750 3031 4423 
Q 3450 4097 3450 3541 
Q 3450 3153 3228 2886 
Q 3006 2619 2597 2516 
z
" transform="scale(0.015625)"/>
       </defs>
       <use xlink:href="#DejaVuSans-33"/>
      </g>
     </g>
    </g>
    <g id="xtick_6">
     <g id="line2d_6">
      <g>
       <use xlink:href="#mbfd40893a1" x="318.428419" y="301.037813" style="stroke: #000000; stroke-width: 0.8"/>
      </g>
     </g>
     <g id="text_6">
      <!-- 4 -->
      <g transform="translate(315.247169 315.63625) scale(0.1 -0.1)">
       <defs>
        <path id="DejaVuSans-34" d="M 2419 4116 
L 825 1625 
L 2419 1625 
L 2419 4116 
z
M 2253 4666 
L 3047 4666 
L 3047 1625 
L 3713 1625 
L 3713 1100 
L 3047 1100 
L 3047 0 
L 2419 0 
L 2419 1100 
L 313 1100 
L 313 1709 
L 2253 4666 
z
" transform="scale(0.015625)"/>
       </defs>
       <use xlink:href="#DejaVuSans-34"/>
      </g>
     </g>
    </g>
    <g id="text_7">
     <!-- $x_1$ -->
     <g transform="translate(179.367188 333.873438) scale(0.16 -0.16)">
      <defs>
       <path id="DejaVuSans-Oblique-78" d="M 3841 3500 
L 2234 1784 
L 3219 0 
L 2559 0 
L 1819 1388 
L 531 0 
L -166 0 
L 1556 1844 
L 641 3500 
L 1300 3500 
L 1972 2234 
L 3144 3500 
L 3841 3500 
z
" transform="scale(0.015625)"/>
      </defs>
      <use xlink:href="#DejaVuSans-Oblique-78" transform="translate(0 0.3125)"/>
      <use xlink:href="#DejaVuSans-31" transform="translate(59.179688 -16.09375) scale(0.7)"/>
     </g>
    </g>
   </g>
   <g id="matplotlib.axis_2">
    <g id="ytick_1">
     <g id="line2d_7">
      <defs>
       <path id="m596de80707" d="M 0 0 
L -3.5 0 
" style="stroke: #000000; stroke-width: 0.8"/>
      </defs>
      <g>
       <use xlink:href="#m596de80707" x="48.427188" y="296.008759" style="stroke: #000000; stroke-width: 0.8"/>
      </g>
     </g>
     <g id="text_8">
      <!-- −1 -->
      <g transform="translate(26.685 299.807978) scale(0.1 -0.1)">
       <use xlink:href="#DejaVuSans-2212"/>
       <use xlink:href="#DejaVuSans-31" x="83.789062"/>
      </g>
     </g>
    </g>
    <g id="ytick_2">
     <g id="line2d_8">
      <g>
       <use xlink:href="#m596de80707" x="48.427188" y="259.594289" style="stroke: #000000; stroke-width: 0.8"/>
      </g>
     </g>
     <g id="text_9">
      <!-- 0 -->
      <g transform="translate(35.064688 263.393508) scale(0.1 -0.1)">
       <use xlink:href="#DejaVuSans-30"/>
      </g>
     </g>
    </g>
    <g id="ytick_3">
     <g id="line2d_9">
      <g>
       <use xlink:href="#m596de80707" x="48.427188" y="223.179819" style="stroke: #000000; stroke-width: 0.8"/>
      </g>
     </g>
     <g id="text_10">
      <!-- 1 -->
      <g transform="translate(35.064688 226.979038) scale(0.1 -0.1)">
       <use xlink:href="#DejaVuSans-31"/>
      </g>
     </g>
    </g>
    <g id="ytick_4">
     <g id="line2d_10">
      <g>
       <use xlink:href="#m596de80707" x="48.427188" y="186.765349" style="stroke: #000000; stroke-width: 0.8"/>
      </g>
     </g>
     <g id="text_11">
      <!-- 2 -->
      <g transform="translate(35.064688 190.564568) scale(0.1 -0.1)">
       <use xlink:href="#DejaVuSans-32"/>
      </g>
     </g>
    </g>
    <g id="ytick_5">
     <g id="line2d_11">
      <g>
       <use xlink:href="#m596de80707" x="48.427188" y="150.350879" style="stroke: #000000; stroke-width: 0.8"/>
      </g>
     </g>
     <g id="text_12">
      <!-- 3 -->
      <g transform="translate(35.064688 154.150097) scale(0.1 -0.1)">
       <use xlink:href="#DejaVuSans-33"/>
      </g>
     </g>
    </g>
    <g id="ytick_6">
     <g id="line2d_12">
      <g>
       <use xlink:href="#m596de80707" x="48.427188" y="113.936409" style="stroke: #000000; stroke-width: 0.8"/>
      </g>
     </g>
     <g id="text_13">
      <!-- 4 -->
      <g transform="translate(35.064688 117.735627) scale(0.1 -0.1)">
       <use xlink:href="#DejaVuSans-34"/>
      </g>
     </g>
    </g>
    <g id="ytick_7">
     <g id="line2d_13">
      <g>
       <use xlink:href="#m596de80707" x="48.427188" y="77.521938" style="stroke: #000000; stroke-width: 0.8"/>
      </g>
     </g>
     <g id="text_14">
      <!-- 5 -->
      <g transform="translate(35.064688 81.321157) scale(0.1 -0.1)">
       <defs>
        <path id="DejaVuSans-35" d="M 691 4666 
L 3169 4666 
L 3169 4134 
L 1269 4134 
L 1269 2991 
Q 1406 3038 1543 3061 
Q 1681 3084 1819 3084 
Q 2600 3084 3056 2656 
Q 3513 2228 3513 1497 
Q 3513 744 3044 326 
Q 2575 -91 1722 -91 
Q 1428 -91 1123 -41 
Q 819 9 494 109 
L 494 744 
Q 775 591 1075 516 
Q 1375 441 1709 441 
Q 2250 441 2565 725 
Q 2881 1009 2881 1497 
Q 2881 1984 2565 2268 
Q 2250 2553 1709 2553 
Q 1456 2553 1204 2497 
Q 953 2441 691 2322 
L 691 4666 
z
" transform="scale(0.015625)"/>
       </defs>
       <use xlink:href="#DejaVuSans-35"/>
      </g>
     </g>
    </g>
    <g id="ytick_8">
     <g id="line2d_14">
      <g>
       <use xlink:href="#m596de80707" x="48.427188" y="41.107468" style="stroke: #000000; stroke-width: 0.8"/>
      </g>
     </g>
     <g id="text_15">
      <!-- 6 -->
      <g transform="translate(35.064688 44.906687) scale(0.1 -0.1)">
       <defs>
        <path id="DejaVuSans-36" d="M 2113 2584 
Q 1688 2584 1439 2293 
Q 1191 2003 1191 1497 
Q 1191 994 1439 701 
Q 1688 409 2113 409 
Q 2538 409 2786 701 
Q 3034 994 3034 1497 
Q 3034 2003 2786 2293 
Q 2538 2584 2113 2584 
z
M 3366 4563 
L 3366 3988 
Q 3128 4100 2886 4159 
Q 2644 4219 2406 4219 
Q 1781 4219 1451 3797 
Q 1122 3375 1075 2522 
Q 1259 2794 1537 2939 
Q 1816 3084 2150 3084 
Q 2853 3084 3261 2657 
Q 3669 2231 3669 1497 
Q 3669 778 3244 343 
Q 2819 -91 2113 -91 
Q 1303 -91 875 529 
Q 447 1150 447 2328 
Q 447 3434 972 4092 
Q 1497 4750 2381 4750 
Q 2619 4750 2861 4703 
Q 3103 4656 3366 4563 
z
" transform="scale(0.015625)"/>
       </defs>
       <use xlink:href="#DejaVuSans-36"/>
      </g>
     </g>
    </g>
    <g id="text_16">
     <!-- $x_2$ -->
     <g transform="translate(19.3575 170.997813) rotate(-90) scale(0.16 -0.16)">
      <use xlink:href="#DejaVuSans-Oblique-78" transform="translate(0 0.3125)"/>
      <use xlink:href="#DejaVuSans-32" transform="translate(59.179688 -16.09375) scale(0.7)"/>
     </g>
    </g>
   </g>
   <g id="QuadContourSet_1">
    <path d="M 327.427188 112.527201 
L 324.609006 113.22151 
L 323.73104 113.437813 
L 321.790824 113.915819 
L 318.972642 114.610128 
L 316.15446 115.304437 
L 313.336278 115.998746 
L 312.365913 116.237813 
L 310.518097 116.693055 
L 307.699915 117.387364 
L 304.881733 118.081672 
L 302.063551 118.775981 
L 301.000785 119.037813 
L 299.245369 119.47029 
L 296.427188 120.164599 
L 293.609006 120.858908 
L 290.790824 121.553217 
L 289.635658 121.837813 
L 287.972642 122.247526 
L 285.15446 122.941835 
L 282.336278 123.636144 
L 279.518097 124.330452 
L 278.27053 124.637813 
L 276.699915 125.024761 
L 273.881733 125.71907 
L 271.063551 126.413379 
L 268.245369 127.107688 
L 266.905402 127.437813 
L 265.427188 127.801997 
L 262.609006 128.496306 
L 259.790824 129.190615 
L 256.972642 129.884924 
L 255.540275 130.237813 
L 254.15446 130.579232 
L 251.336278 131.273541 
L 248.518097 131.96785 
L 245.699915 132.662159 
L 244.175147 133.037813 
L 242.881733 133.356468 
L 240.063551 134.050777 
L 237.245369 134.745086 
L 234.427188 135.439395 
L 232.81002 135.837813 
L 231.609006 136.133704 
L 228.790824 136.828012 
L 225.972642 137.522321 
L 223.15446 138.21663 
L 221.444892 138.637813 
L 220.336278 138.910939 
L 217.518097 139.605248 
L 214.699915 140.299557 
L 211.881733 140.993866 
L 210.079765 141.437813 
L 209.063551 141.688175 
L 206.245369 142.382484 
L 203.427188 143.076792 
L 200.609006 143.771101 
L 198.714637 144.237813 
L 197.790824 144.46541 
L 194.972642 145.159719 
L 192.15446 145.854028 
L 189.336278 146.548337 
L 187.349509 147.037813 
L 186.518097 147.242646 
L 183.699915 147.936955 
L 180.881733 148.631264 
L 178.063551 149.325572 
L 175.984382 149.837813 
L 175.245369 150.019881 
L 172.427187 150.71419 
L 169.609006 151.408499 
L 166.790824 152.102808 
L 164.619254 152.637813 
L 163.972642 152.797117 
L 161.15446 153.491426 
L 158.336278 154.185735 
L 155.518097 154.880044 
L 153.254127 155.437813 
L 152.699915 155.574352 
L 149.881733 156.268661 
L 147.063551 156.96297 
L 144.245369 157.657279 
L 141.888999 158.237813 
L 141.427188 158.351588 
L 138.609006 159.045897 
L 135.790824 159.740206 
L 132.972642 160.434515 
L 130.523872 161.037813 
L 130.15446 161.128824 
L 127.336278 161.823132 
L 124.518097 162.517441 
L 121.699915 163.21175 
L 119.158744 163.837813 
L 118.881733 163.906059 
L 116.063551 164.600368 
L 113.245369 165.294677 
L 110.427187 165.988986 
L 107.793616 166.637813 
L 107.609006 166.683295 
L 104.790824 167.377603 
L 101.972642 168.071912 
L 99.15446 168.766221 
L 96.428489 169.437813 
L 96.336278 169.46053 
L 93.518097 170.154839 
L 90.699915 170.849148 
L 87.881733 171.543457 
L 85.063551 172.237766 
L 85.063361 172.237813 
L 82.245369 172.932075 
L 79.427188 173.626383 
L 76.609006 174.320692 
L 73.790824 175.015001 
L 73.698234 175.037813 
L 70.972642 175.70931 
L 68.15446 176.403619 
L 65.336278 177.097928 
L 62.518097 177.792237 
L 62.333106 177.837813 
L 59.699915 178.486546 
L 56.881733 179.180855 
L 54.063551 179.875163 
L 51.245369 180.569472 
L 50.967979 180.637813 
L 48.427187 181.263781 
" clip-path="url(#p24da66156d)" style="fill: none; stroke-dasharray: 5.55,2.4; stroke-dashoffset: 0; stroke: #808080; stroke-width: 1.5"/>
    <path d="M 327.427188 141.601948 
L 324.609006 142.296257 
L 321.790824 142.990565 
L 318.972642 143.684874 
L 316.72828 144.237813 
L 316.15446 144.379183 
L 313.336278 145.073492 
L 310.518097 145.767801 
L 307.699915 146.46211 
L 305.363153 147.037813 
L 304.881733 147.156419 
L 302.063551 147.850728 
L 299.245369 148.545037 
L 296.427188 149.239345 
L 293.998025 149.837813 
L 293.609006 149.933654 
L 290.790824 150.627963 
L 287.972642 151.322272 
L 285.15446 152.016581 
L 282.632898 152.637813 
L 282.336278 152.71089 
L 279.518097 153.405199 
L 276.699915 154.099508 
L 273.881733 154.793817 
L 271.26777 155.437813 
L 271.063551 155.488125 
L 268.245369 156.182434 
L 265.427188 156.876743 
L 262.609006 157.571052 
L 259.902643 158.237813 
L 259.790824 158.265361 
L 256.972642 158.95967 
L 254.15446 159.653979 
L 251.336278 160.348288 
L 248.537515 161.037813 
L 248.518097 161.042597 
L 245.699915 161.736905 
L 242.881733 162.431214 
L 240.063551 163.125523 
L 237.245369 163.819832 
L 237.172387 163.837813 
L 234.427188 164.514141 
L 231.609006 165.20845 
L 228.790824 165.902759 
L 225.972642 166.597068 
L 225.80726 166.637813 
L 223.15446 167.291377 
L 220.336278 167.985685 
L 217.518097 168.679994 
L 214.699915 169.374303 
L 214.442132 169.437813 
L 211.881733 170.068612 
L 209.063551 170.762921 
L 206.245369 171.45723 
L 203.427187 172.151539 
L 203.077005 172.237813 
L 200.609006 172.845848 
L 197.790824 173.540157 
L 194.972642 174.234465 
L 192.15446 174.928774 
L 191.711877 175.037813 
L 189.336278 175.623083 
L 186.518097 176.317392 
L 183.699915 177.011701 
L 180.881733 177.70601 
L 180.346749 177.837813 
L 178.063551 178.400319 
L 175.245369 179.094628 
L 172.427187 179.788937 
L 169.609006 180.483245 
L 168.981622 180.637813 
L 166.790824 181.177554 
L 163.972642 181.871863 
L 161.15446 182.566172 
L 158.336278 183.260481 
L 157.616494 183.437813 
L 155.518097 183.95479 
L 152.699915 184.649099 
L 149.881733 185.343408 
L 147.063551 186.037717 
L 146.251367 186.237813 
L 144.245369 186.732025 
L 141.427188 187.426334 
L 138.609006 188.120643 
L 135.790824 188.814952 
L 134.886239 189.037813 
L 132.972642 189.509261 
L 130.15446 190.20357 
L 127.336278 190.897879 
L 124.518097 191.592188 
L 123.521112 191.837813 
L 121.699915 192.286497 
L 118.881733 192.980805 
L 116.063551 193.675114 
L 113.245369 194.369423 
L 112.155984 194.637813 
L 110.427187 195.063732 
L 107.609006 195.758041 
L 104.790824 196.45235 
L 101.972642 197.146659 
L 100.790856 197.437813 
L 99.15446 197.840968 
L 96.336278 198.535277 
L 93.518097 199.229585 
L 90.699915 199.923894 
L 89.425729 200.237813 
L 87.881733 200.618203 
L 85.063551 201.312512 
L 82.245369 202.006821 
L 79.427188 202.70113 
L 78.060601 203.037813 
L 76.609006 203.395439 
L 73.790824 204.089748 
L 70.972642 204.784057 
L 68.15446 205.478365 
L 66.695474 205.837813 
L 65.336278 206.172674 
L 62.518097 206.866983 
L 59.699915 207.561292 
L 56.881733 208.255601 
L 55.330346 208.637813 
L 54.063551 208.94991 
L 51.245369 209.644219 
L 48.427187 210.338528 
" clip-path="url(#p24da66156d)" style="fill: none; stroke: #000000; stroke-width: 1.5"/>
    <path d="M 327.427188 170.676694 
L 324.609006 171.371003 
L 321.790824 172.065312 
L 321.090648 172.237813 
L 318.972642 172.759621 
L 316.15446 173.45393 
L 313.336278 174.148238 
L 310.518097 174.842547 
L 309.72552 175.037813 
L 307.699915 175.536856 
L 304.881733 176.231165 
L 302.063551 176.925474 
L 299.245369 177.619783 
L 298.360393 177.837813 
L 296.427188 178.314092 
L 293.609006 179.008401 
L 290.790824 179.70271 
L 287.972642 180.397018 
L 286.995265 180.637813 
L 285.15446 181.091327 
L 282.336278 181.785636 
L 279.518097 182.479945 
L 276.699915 183.174254 
L 275.630138 183.437813 
L 273.881733 183.868563 
L 271.063551 184.562872 
L 268.245369 185.257181 
L 265.427188 185.95149 
L 264.26501 186.237813 
L 262.609006 186.645798 
L 259.790824 187.340107 
L 256.972642 188.034416 
L 254.15446 188.728725 
L 252.899883 189.037813 
L 251.336278 189.423034 
L 248.518097 190.117343 
L 245.699915 190.811652 
L 242.881733 191.505961 
L 241.534755 191.837813 
L 240.063551 192.20027 
L 237.245369 192.894578 
L 234.427188 193.588887 
L 231.609006 194.283196 
L 230.169627 194.637813 
L 228.790824 194.977505 
L 225.972642 195.671814 
L 223.15446 196.366123 
L 220.336278 197.060432 
L 218.8045 197.437813 
L 217.518097 197.754741 
L 214.699915 198.44905 
L 211.881733 199.143358 
L 209.063551 199.837667 
L 207.439372 200.237813 
L 206.245369 200.531976 
L 203.427188 201.226285 
L 200.609006 201.920594 
L 197.790824 202.614903 
L 196.074245 203.037813 
L 194.972642 203.309212 
L 192.15446 204.003521 
L 189.336278 204.69783 
L 186.518097 205.392138 
L 184.709117 205.837813 
L 183.699915 206.086447 
L 180.881733 206.780756 
L 178.063551 207.475065 
L 175.245369 208.169374 
L 173.34399 208.637813 
L 172.427187 208.863683 
L 169.609006 209.557992 
L 166.790824 210.252301 
L 163.972642 210.94661 
L 161.978862 211.437813 
L 161.15446 211.640918 
L 158.336278 212.335227 
L 155.518097 213.029536 
L 152.699915 213.723845 
L 150.613734 214.237813 
L 149.881733 214.418154 
L 147.063551 215.112463 
L 144.245369 215.806772 
L 141.427188 216.501081 
L 139.248607 217.037813 
L 138.609006 217.19539 
L 135.790824 217.889698 
L 132.972642 218.584007 
L 130.15446 219.278316 
L 127.883479 219.837813 
L 127.336278 219.972625 
L 124.518097 220.666934 
L 121.699915 221.361243 
L 118.881733 222.055552 
L 116.518352 222.637813 
L 116.063551 222.749861 
L 113.245369 223.44417 
L 110.427187 224.138478 
L 107.609006 224.832787 
L 105.153224 225.437813 
L 104.790824 225.527096 
L 101.972642 226.221405 
L 99.15446 226.915714 
L 96.336278 227.610023 
L 93.788097 228.237813 
L 93.518097 228.304332 
L 90.699915 228.998641 
L 87.881733 229.69295 
L 85.063551 230.387258 
L 82.422969 231.037813 
L 82.245369 231.081567 
L 79.427188 231.775876 
L 76.609006 232.470185 
L 73.790824 233.164494 
L 71.057841 233.837813 
L 70.972642 233.858803 
L 68.15446 234.553112 
L 65.336278 235.247421 
L 62.518097 235.94173 
L 59.699915 236.636038 
L 59.692714 236.637813 
L 56.881733 237.330347 
L 54.063551 238.024656 
L 51.245369 238.718965 
L 48.427187 239.413274 
" clip-path="url(#p24da66156d)" style="fill: none; stroke-dasharray: 5.55,2.4; stroke-dashoffset: 0; stroke: #808080; stroke-width: 1.5"/>
   </g>
   <g id="patch_3">
    <path d="M 48.427188 301.037813 
L 48.427188 23.837813 
" style="fill: none; stroke: #000000; stroke-width: 0.8; stroke-linejoin: miter; stroke-linecap: square"/>
   </g>
   <g id="patch_4">
    <path d="M 327.427188 301.037813 
L 327.427188 23.837813 
" style="fill: none; stroke: #000000; stroke-width: 0.8; stroke-linejoin: miter; stroke-linecap: square"/>
   </g>
   <g id="patch_5">
    <path d="M 48.427187 301.037813 
L 327.427188 301.037813 
" style="fill: none; stroke: #000000; stroke-width: 0.8; stroke-linejoin: miter; stroke-linecap: square"/>
   </g>
   <g id="patch_6">
    <path d="M 48.427187 23.837813 
L 327.427188 23.837813 
" style="fill: none; stroke: #000000; stroke-width: 0.8; stroke-linejoin: miter; stroke-linecap: square"/>
   </g>
   <g id="text_17">
    <!-- C=1 -->
    <g transform="translate(172.719687 17.837813) scale(0.14 -0.14)">
     <defs>
      <path id="DejaVuSans-43" d="M 4122 4306 
L 4122 3641 
Q 3803 3938 3442 4084 
Q 3081 4231 2675 4231 
Q 1875 4231 1450 3742 
Q 1025 3253 1025 2328 
Q 1025 1406 1450 917 
Q 1875 428 2675 428 
Q 3081 428 3442 575 
Q 3803 722 4122 1019 
L 4122 359 
Q 3791 134 3420 21 
Q 3050 -91 2638 -91 
Q 1578 -91 968 557 
Q 359 1206 359 2328 
Q 359 3453 968 4101 
Q 1578 4750 2638 4750 
Q 3056 4750 3426 4639 
Q 3797 4528 4122 4306 
z
" transform="scale(0.015625)"/>
      <path id="DejaVuSans-3d" d="M 678 2906 
L 4684 2906 
L 4684 2381 
L 678 2381 
L 678 2906 
z
M 678 1631 
L 4684 1631 
L 4684 1100 
L 678 1100 
L 678 1631 
z
" transform="scale(0.015625)"/>
     </defs>
     <use xlink:href="#DejaVuSans-43"/>
     <use xlink:href="#DejaVuSans-3d" x="69.824219"/>
     <use xlink:href="#DejaVuSans-31" x="153.613281"/>
    </g>
   </g>
  </g>
 </g>
 <defs>
  <clipPath id="p24da66156d">
   <rect x="48.427188" y="23.837813" width="279" height="277.2"/>
  </clipPath>
 </defs>
</svg>
